<svg width="24" height="24" viewBox="0 0 24 24" fill="none" xmlns="http://www.w3.org/2000/svg">
<path d="M5.40884 20.7755L5.40885 20.7753C5.24278 20.7637 5.10515 20.6935 5.01025 20.5773C4.93555 20.4858 4.89119 20.3707 4.87623 20.243H4.8677V20.143C4.8677 18.8381 5.21377 17.6162 5.81342 16.5614H2.43546C2.26479 16.5614 2.11856 16.4984 2.01514 16.3838C1.91291 16.2704 1.85963 16.1146 1.85642 15.9395M5.40884 20.7755L1.9564 15.9373M5.40884 20.7755L5.41581 20.7755L18.5545 20.7784C18.8752 20.7784 19.1336 20.5188 19.1336 20.1993C19.1336 18.9325 18.7597 17.6106 18.1653 16.5615L21.564 16.5606C21.8847 16.5606 22.1431 16.301 22.1431 15.9815L22.143 15.9803C22.1125 13.5787 20.7612 11.5478 18.6421 10.6785C19.7861 9.95121 20.5184 8.67431 20.5184 7.25897C20.5184 3.79604 16.468 1.96133 13.9042 4.20528C12.6927 3.70612 11.307 3.70612 10.0955 4.20528C9.37698 3.57685 8.45387 3.22247 7.48197 3.22247C3.45251 3.22247 1.99532 8.57355 5.35683 10.6801M5.40884 20.7755L5.58352 10.6986C5.54592 10.6774 5.50889 10.6558 5.47243 10.6337C5.43369 10.6487 5.39516 10.6642 5.35683 10.6801M1.85642 15.9395C1.85642 15.9394 1.85642 15.9393 1.85642 15.9391L1.9564 15.9373M1.85642 15.9395C1.85642 15.9396 1.85643 15.9397 1.85643 15.9398L1.9564 15.9373M1.85642 15.9395C1.80092 13.6744 3.27905 11.5403 5.35683 10.6801M1.9564 15.9373C1.90121 13.691 3.38576 11.5712 5.46332 10.7447C5.4273 10.7235 5.3918 10.702 5.35683 10.6801M5.9877 16.4614H5.87133L5.92871 16.5614C5.94812 16.5279 5.96778 16.4946 5.9877 16.4614ZM18.529 5.2208L18.5291 5.22083C20.2108 6.91955 19.1948 9.83041 16.877 10.118C17.3723 8.11422 16.609 6.03533 14.9942 4.82705C16.111 4.10957 17.5823 4.26358 18.529 5.2208ZM7.12484 10.1177C5.71245 9.93785 4.64034 8.71877 4.64034 7.2608C4.64034 4.96075 7.15004 3.62645 9.00803 4.82696C7.39311 6.03507 6.62977 8.11381 7.12484 10.1177ZM15.4988 10.5398C14.118 13.541 9.88202 13.5437 8.50119 10.5399C7.27855 7.87711 9.24236 4.98947 11.9891 4.98904C14.9025 5.02526 16.6823 7.96716 15.4988 10.5398ZM3.04598 15.4043C3.31223 13.0953 5.28107 11.3435 7.64657 11.4198C8.11471 12.2353 8.80141 12.9107 9.6306 13.3566C8.46493 13.7713 7.43564 14.482 6.63472 15.4042L3.04598 15.4043ZM17.3446 15.4042C16.5466 14.4875 15.5227 13.7755 14.3623 13.3621C15.1946 12.9141 15.8859 12.2383 16.3561 11.4198C18.7216 11.3434 20.6905 13.0943 20.9567 15.4042H17.3446ZM6.04801 19.6202C6.16919 18.1942 6.8066 16.8488 7.77184 15.8727C11.3811 12.2248 17.512 14.5852 17.9317 19.6202H6.04801Z" fill="#5718FF" stroke="#5718FF" stroke-width="0.2"/>
<path d="M13.2471 9.79774L13.2395 9.81237C12.7073 10.8176 11.2757 10.8107 10.7509 9.79791C10.6665 9.6342 10.5368 9.53764 10.3924 9.50168C10.2506 9.46634 10.1019 9.49121 9.97737 9.55535C9.85282 9.61949 9.74621 9.72605 9.69258 9.86213C9.638 10.0006 9.6413 10.1624 9.72563 10.3264L9.7257 10.3266C10.6816 12.179 13.32 12.1791 14.275 10.3265C14.3596 10.1625 14.3631 10.0006 14.3085 9.86202C14.2548 9.72582 14.1481 9.61917 14.0233 9.55498C13.8985 9.49079 13.7495 9.46592 13.6073 9.50127C13.4625 9.53724 13.3322 9.63383 13.2471 9.79774ZM14.1862 10.2807C13.2684 12.061 10.7333 12.061 9.81456 10.2807L13.4019 9.74383C13.7353 9.3458 14.4545 9.7607 14.1862 10.2807Z" fill="#5718FF" stroke="#5718FF" stroke-width="0.2"/>
</svg>
