<svg width="21" height="21" viewBox="0 0 21 21" fill="none" xmlns="http://www.w3.org/2000/svg">
<g clip-path="url(#clip0_2_1447)">
<path d="M10.4583 6.41667C11.4228 6.41667 12.2013 5.635 12.2013 4.66667C12.2013 3.69833 11.4228 2.91667 10.4583 2.91667C9.49379 2.91667 8.71523 3.69833 8.71523 4.66667C8.71523 5.635 9.49379 6.41667 10.4583 6.41667ZM10.4583 8.75C9.49379 8.75 8.71523 9.53167 8.71523 10.5C8.71523 11.4683 9.49379 12.25 10.4583 12.25C11.4228 12.25 12.2013 11.4683 12.2013 10.5C12.2013 9.53167 11.4228 8.75 10.4583 8.75ZM10.4583 14.5833C9.49379 14.5833 8.71523 15.365 8.71523 16.3333C8.71523 17.3017 9.49379 18.0833 10.4583 18.0833C11.4228 18.0833 12.2013 17.3017 12.2013 16.3333C12.2013 15.365 11.4228 14.5833 10.4583 14.5833Z" fill="#545F7D"/>
</g>
<defs>
<clipPath id="clip0_2_1447">
<rect width="20.6365" height="20.7188" fill="white" transform="scale(1.01357)"/>
</clipPath>
</defs>
</svg>
