<svg width="25" height="22" viewBox="0 0 25 22" fill="none" xmlns="http://www.w3.org/2000/svg">
<g clip-path="url(#clip0_0_47)">
<path d="M22.7089 2.97H19.2429V1.05618C19.2429 0.769999 19.0005 0.549999 18.6853 0.549999H16.1415C15.8262 0.549999 15.5838 0.769999 15.5838 1.05618V2.97H8.65184V1.05618C8.65184 0.769999 8.40948 0.549999 8.09422 0.549999H5.54944C5.23417 0.549999 4.99181 0.769999 4.99181 1.05618V2.97H1.52679C1.23615 2.97 0.969169 3.19 0.969169 3.47617V20.9662C0.969169 21.2523 1.21153 21.4723 1.52679 21.4723H22.7086C22.9992 21.4723 23.2662 21.2523 23.2662 20.9662V3.47617C23.2662 3.19 22.9992 2.97 22.7086 2.97H22.7089ZM16.6746 1.56235H18.1288V4.46613H16.6746V1.56235ZM6.0837 1.56235H7.53786V4.46613H6.0837V1.56235ZM22.1515 20.4377H2.08475V7.56769H22.1524L22.1515 20.4377Z" fill="#545F7D"/>
<path d="M4.84716 18.1724H7.44017C7.58596 18.1724 7.70715 18.0624 7.70715 17.9301V15.5539C7.70715 15.4215 7.58597 15.3115 7.44017 15.3115L4.84716 15.3124C4.70136 15.3124 4.58017 15.4224 4.58017 15.5547V17.9085C4.58017 18.0623 4.70135 18.1723 4.84716 18.1723V18.1724Z" fill="#545F7D"/>
<path d="M10.8098 18.1724H13.4029C13.5487 18.1724 13.6698 18.0624 13.6698 17.9301L13.6689 15.5539C13.6689 15.4215 13.5477 15.3115 13.4019 15.3115L10.8099 15.3124C10.6641 15.3124 10.5429 15.4224 10.5429 15.5547V17.9085C10.5183 18.0623 10.6395 18.1723 10.8099 18.1723L10.8098 18.1724Z" fill="#545F7D"/>
<path d="M16.7477 18.1724H19.3407C19.4865 18.1724 19.6077 18.0624 19.6077 17.9301L19.6067 15.5539C19.6067 15.4215 19.4856 15.3115 19.3398 15.3115L16.7477 15.3124C16.6019 15.3124 16.4807 15.4224 16.4807 15.5547V17.9085C16.4561 18.0623 16.5773 18.1723 16.7477 18.1723L16.7477 18.1724Z" fill="#545F7D"/>
<path d="M4.84716 12.7376H7.44017C7.58596 12.7376 7.70715 12.6276 7.70715 12.4952V10.1423C7.70715 10.01 7.58597 9.89996 7.44017 9.89996H4.84716C4.70136 9.89996 4.58017 10.01 4.58017 10.1423V12.4961C4.58017 12.6276 4.70135 12.7376 4.84716 12.7376V12.7376Z" fill="#545F7D"/>
<path d="M10.8098 12.7376H13.4029C13.5487 12.7376 13.6698 12.6276 13.6698 12.4952L13.6689 10.1423C13.6689 10.01 13.5477 9.89996 13.4019 9.89996H10.8099C10.6641 9.89996 10.5429 10.01 10.5429 10.1423V12.4961C10.5183 12.6276 10.6395 12.7376 10.8099 12.7376L10.8098 12.7376Z" fill="#545F7D"/>
<path d="M16.7477 12.7376H19.3407C19.4865 12.7376 19.6077 12.6276 19.6077 12.4952L19.6067 10.1423C19.6067 10.01 19.4856 9.89996 19.3398 9.89996H16.7477C16.6019 9.89996 16.4807 10.01 16.4807 10.1423V12.4961C16.4561 12.6276 16.5773 12.7376 16.7477 12.7376L16.7477 12.7376Z" fill="#545F7D"/>
</g>
<defs>
<clipPath id="clip0_0_47">
<rect width="24.1185" height="21.8933" fill="white" transform="scale(1.00487)"/>
</clipPath>
</defs>
</svg>
