<svg width="16" height="16" viewBox="0 0 16 16" fill="none" xmlns="http://www.w3.org/2000/svg">
<path fill-rule="evenodd" clip-rule="evenodd" d="M7.98561 1.28751C7.85186 1.29314 7.73561 1.38126 7.69436 1.50876L6.18748 6.17996L1.2806 6.16996C1.14185 6.16996 1.01811 6.25934 0.975609 6.39121C0.932484 6.52371 0.979984 6.66809 1.09248 6.74996L5.0688 9.62676L3.54192 14.293C3.4988 14.4249 3.54567 14.5699 3.65817 14.6511C3.77005 14.733 3.92254 14.733 4.03443 14.6511L7.99939 11.758L11.9656 14.6511C12.0775 14.733 12.23 14.733 12.3419 14.6511C12.4544 14.5699 12.5013 14.4249 12.4581 14.293L10.9313 9.62676L14.9076 6.74996C15.0201 6.66809 15.0676 6.52371 15.0245 6.39121C14.9813 6.25933 14.8582 6.16996 14.7195 6.17059L9.81258 6.18059L8.30383 1.50939V1.50876C8.25945 1.37188 8.12946 1.28188 7.9857 1.28751L7.98561 1.28751Z" fill="#E9B200"/>
</svg>
