<svg width="25" height="26" viewBox="0 0 25 26" fill="none" xmlns="http://www.w3.org/2000/svg">
<path d="M5.60355 22.4989L5.60357 22.4986C5.43085 22.486 5.28893 22.4097 5.19181 22.2853C5.11432 22.1861 5.06881 22.0609 5.05427 21.922H5.04622V21.8216C5.04622 20.4047 5.40699 19.0779 6.03202 17.9336H2.52318C2.34562 17.9336 2.19462 17.865 2.08863 17.7421C1.98412 17.6209 1.92974 17.4547 1.92648 17.2675M5.60355 22.4989L2.02686 17.2654M5.60355 22.4989L5.61087 22.4989L19.2228 22.5019C19.5575 22.5019 19.8196 22.22 19.8196 21.8825C19.8196 20.5071 19.4297 19.071 18.8104 17.9337L22.3407 17.9327C22.6753 17.9327 22.9374 17.6508 22.9374 17.3133L22.9374 17.3121C22.9057 14.7102 21.5027 12.5082 19.2992 11.5701C20.4918 10.7843 21.2543 9.39847 21.2543 7.86387C21.2543 4.12729 17.0652 2.12804 14.405 4.56355C13.1499 4.0229 11.7142 4.0229 10.4591 4.56355C9.71542 3.88323 8.75909 3.49892 7.75144 3.49892C5.62713 3.49892 4.19545 5.00238 3.75894 6.7674C3.33601 8.47747 3.84186 10.4522 5.5642 11.5717M5.60355 22.4989L5.78462 11.5902C5.74827 11.5687 5.71244 11.5469 5.67711 11.5247C5.63929 11.5399 5.60165 11.5556 5.5642 11.5717M1.92648 17.2675C1.92647 17.2674 1.92647 17.2673 1.92647 17.2672L2.02686 17.2654M1.92648 17.2675C1.92648 17.2676 1.92648 17.2677 1.92648 17.2678L2.02686 17.2654M1.92648 17.2675C1.86897 14.8143 3.40386 12.4994 5.5642 11.5717M2.02686 17.2654C1.96961 14.8291 3.51131 12.53 5.66768 11.637C5.63271 11.6155 5.59822 11.5938 5.5642 11.5717M6.20336 17.8332H6.0878L6.14664 17.9336C6.16532 17.9 6.18422 17.8665 6.20336 17.8332ZM19.1971 5.64866L19.1971 5.6487C20.087 6.5886 20.2511 7.8724 19.8757 8.94911C19.5145 9.98493 18.6581 10.8192 17.4793 10.9697C17.9977 8.79634 17.2053 6.53766 15.5235 5.22873C16.6818 4.4432 18.2121 4.60731 19.1971 5.64866ZM7.38705 10.9694C5.92249 10.7773 4.80427 9.45497 4.80427 7.86585C4.80427 5.35576 7.42123 3.91878 9.34317 5.22866C7.66133 6.53741 6.86883 8.79591 7.38705 10.9694ZM16.0593 11.4229C14.6269 14.6784 10.2375 14.6813 8.80514 11.423C7.53327 8.52642 9.57916 5.39733 12.4209 5.39685C15.4357 5.43605 17.2904 8.62436 16.0593 11.4229ZM3.15155 16.6959C3.42412 14.1821 5.47074 12.2805 7.92255 12.3636C8.40994 13.2523 9.12719 13.988 9.99431 14.4712C8.7792 14.9197 7.70688 15.6924 6.8738 16.6958L3.15155 16.6959ZM17.9691 16.6958C17.1391 15.6984 16.0724 14.9243 14.8628 14.4772C15.7331 13.9917 16.4551 13.2556 16.9446 12.3635C19.3964 12.2804 21.4431 14.1811 21.7156 16.6958H17.9691Z" fill="#5718FF" stroke="#5718FF" stroke-width="0.2"/>
<path d="M13.7262 10.6195L13.7183 10.6353C13.1652 11.7279 11.6815 11.7204 11.1361 10.6196C11.0499 10.4448 10.9168 10.3405 10.767 10.3014C10.6196 10.263 10.4654 10.2902 10.3365 10.3595C10.078 10.4988 9.90146 10.8229 10.0779 11.1817L10.078 11.1818C11.0666 13.1851 13.7994 13.1852 14.7871 11.1818C14.9642 10.8229 14.7876 10.4985 14.5285 10.3591C14.3994 10.2897 14.2449 10.2626 14.0971 10.301C13.9468 10.34 13.8132 10.4444 13.7262 10.6195ZM14.6971 11.1374C13.7462 13.0661 11.1198 13.0661 10.168 11.1374L13.8784 10.5637C14.221 10.1192 14.9767 10.5707 14.6971 11.1374Z" fill="#5718FF" stroke="#5718FF" stroke-width="0.2"/>
</svg>
