<svg width="42" height="44" viewBox="0 0 42 44" fill="none" xmlns="http://www.w3.org/2000/svg">
<ellipse opacity="0.1" cx="21" cy="21.9591" rx="21" ry="21.9591" fill="#FF3366"/>
<g clip-path="url(#clip0_2_1556)">
<path d="M28.977 14.5479C28.977 13.756 28.352 13.1122 27.4114 12.672C26.4655 12.2293 25.1701 11.9758 23.756 11.9758C22.3423 11.9758 21.0471 12.2293 20.1013 12.672C19.1607 13.1122 18.5357 13.756 18.5357 14.5479C18.5357 15.3399 19.1607 15.9837 20.1013 16.4239C21.0471 16.8666 22.3423 17.1201 23.756 17.1201C25.1701 17.1201 26.4655 16.8666 27.4114 16.4239C28.352 15.9837 28.977 15.3399 28.977 14.5479ZM19.527 14.5479C19.527 14.3867 19.6229 14.2079 19.8301 14.0246C20.0358 13.8426 20.3394 13.6674 20.7234 13.5149C21.4906 13.2102 22.5602 13.003 23.756 13.003C24.9518 13.003 26.0216 13.2102 26.789 13.5149C27.1731 13.6674 27.4768 13.8426 27.6826 14.0246C27.8899 14.2079 27.9857 14.3867 27.9857 14.5479C27.9857 14.7091 27.8899 14.888 27.6826 15.0713C27.4768 15.2533 27.1731 15.4284 26.789 15.5809C26.0216 15.8857 24.9518 16.0928 23.756 16.0928C22.5602 16.0928 21.4906 15.8857 20.7234 15.5809C20.3394 15.4284 20.0358 15.2533 19.8301 15.0713C19.6229 14.888 19.527 14.7091 19.527 14.5479Z" fill="#FF3366" stroke="#FF3366" stroke-width="0.2"/>
<path d="M28.977 14.5479V14.4462H28.8753H28.0875H27.9857V14.5479V17.0183C27.9857 17.1795 27.8899 17.3584 27.6826 17.5417C27.4768 17.7237 27.1731 17.8988 26.789 18.0514C26.0216 18.3561 24.9518 18.5632 23.756 18.5632C22.5602 18.5632 21.4906 18.3561 20.7234 18.0514C20.3394 17.8988 20.0358 17.7237 19.8301 17.5417C19.6229 17.3584 19.527 17.1795 19.527 17.0183V14.5479V14.4462H19.4253H18.6375H18.5357V14.5479V17.0183C18.5357 17.8103 19.1607 18.4541 20.1013 18.8943C21.0471 19.337 22.3423 19.5905 23.756 19.5905C25.1701 19.5905 26.4655 19.337 27.4114 18.8943C28.352 18.4541 28.977 17.8103 28.977 17.0183V14.5479Z" fill="#FF3366" stroke="#FF3366" stroke-width="0.2"/>
<path d="M18.5357 19.4964V19.5797L18.6174 19.5962L18.6174 19.5962L18.6255 19.5978L18.6338 19.5981C18.9034 19.6081 19.1657 19.6287 19.4177 19.6585L19.5471 19.6738L19.5306 19.5445C19.5282 19.5255 19.527 19.5074 19.527 19.4887V17.0183V16.9165H19.4253H18.6375H18.5357V17.0183V19.4887V19.4964ZM22.5769 21.8991L22.5796 22C22.9582 22.0398 23.3523 22.0608 23.756 22.0608C25.1701 22.0608 26.4655 21.8073 27.4114 21.3646C28.352 20.9244 28.977 20.2806 28.977 19.4887V17.0183V16.9165H28.8753H28.0875H27.9857V17.0183V19.4887C27.9857 19.6498 27.8899 19.8287 27.6826 20.012C27.4768 20.194 27.1731 20.3692 26.789 20.5217C26.0216 20.8264 24.9518 21.0336 23.756 21.0336C23.348 21.0336 22.9548 21.0099 22.5823 20.9656L22.4529 20.9502L22.4694 21.0795C22.4718 21.0985 22.473 21.1173 22.473 21.1353C22.473 21.2056 22.479 21.486 22.4885 21.9012L22.5769 21.8991Z" fill="#FF3366" stroke="#FF3366" stroke-width="0.2"/>
<path d="M22.5477 24.3279L22.3936 24.4522L22.6406 24.4768C23.0007 24.5127 23.3739 24.5314 23.7559 24.5314C25.17 24.5314 26.4655 24.2779 27.4113 23.8352C28.352 23.395 28.977 22.7512 28.977 21.9592V19.4888V19.3871H28.8752H28.0875H27.9857V19.4888V21.9592C27.9857 22.1204 27.8898 22.2993 27.6825 22.4826C27.4767 22.6646 27.173 22.8397 26.7889 22.9922C26.0215 23.297 24.9517 23.5041 23.7559 23.5041C23.3699 23.5041 22.9957 23.4827 22.6414 23.443L22.5255 23.43L22.5283 23.5467C22.5304 23.6296 22.5325 23.7136 22.5345 23.7985C22.5388 23.9716 22.5431 24.1485 22.5477 24.3279ZM19.4136 19.6578L19.527 19.6709V19.5567V19.4888V19.387H19.4253H18.6375H18.5357V19.4888V19.4965V19.5946L18.6337 19.5982C18.9019 19.6081 19.1621 19.6288 19.4136 19.6578Z" fill="#FF3366" stroke="#FF3366" stroke-width="0.2"/>
<path d="M23.4643 21.9591C23.4643 21.1672 22.8393 20.5234 21.8988 20.0832C20.953 19.6405 19.6577 19.387 18.244 19.387C16.8299 19.387 15.5345 19.6405 14.5886 20.0832C13.648 20.5234 13.023 21.1672 13.023 21.9591C13.023 22.7511 13.648 23.3949 14.5886 23.8351C15.5345 24.2778 16.8299 24.5313 18.244 24.5313C19.6577 24.5313 20.953 24.2778 21.8988 23.8351C22.8393 23.3949 23.4643 22.7511 23.4643 21.9591ZM14.0143 21.9591C14.0143 21.7979 14.1101 21.6191 14.3174 21.4358C14.5232 21.2538 14.8269 21.0786 15.211 20.9261C15.9785 20.6214 17.0483 20.4142 18.244 20.4142C19.4398 20.4142 20.5094 20.6214 21.2766 20.9261C21.6606 21.0786 21.9642 21.2538 22.17 21.4358C22.3772 21.6191 22.473 21.7979 22.473 21.9591C22.473 22.1203 22.3772 22.2992 22.17 22.4825C21.9642 22.6645 21.6606 22.8396 21.2766 22.9921C20.5094 23.2969 19.4398 23.504 18.244 23.504C17.0483 23.504 15.9785 23.2969 15.211 22.9921C14.8269 22.8396 14.5232 22.6645 14.3174 22.4825C14.1101 22.2992 14.0143 22.1203 14.0143 21.9591Z" fill="#FF3366" stroke="#FF3366" stroke-width="0.2"/>
<path d="M23.4643 21.9591V21.8574H23.3625H22.5748H22.473V21.9591V24.4295C22.473 24.5907 22.3772 24.7696 22.17 24.9529C21.9642 25.1349 21.6606 25.31 21.2766 25.4626C20.5094 25.7673 19.4398 25.9744 18.244 25.9744C17.0483 25.9744 15.9785 25.7673 15.211 25.4626C14.8269 25.31 14.5232 25.1349 14.3174 24.9529C14.1101 24.7696 14.0143 24.5907 14.0143 24.4295V21.9591V21.8574H13.9125H13.1248H13.023V21.9591V24.4295C13.023 25.2215 13.648 25.8653 14.5886 26.3055C15.5345 26.7482 16.8299 27.0017 18.244 27.0017C19.6577 27.0017 20.953 26.7482 21.8988 26.3055C22.8393 25.8653 23.4643 25.2215 23.4643 24.4295V21.9591Z" fill="#FF3366" stroke="#FF3366" stroke-width="0.2"/>
<path d="M23.4643 24.4295V24.3278H23.3625H22.5748H22.473V24.4295V26.8999C22.473 27.0611 22.3772 27.24 22.17 27.4233C21.9642 27.6053 21.6606 27.7804 21.2766 27.9329C20.5094 28.2377 19.4398 28.4448 18.244 28.4448C17.0483 28.4448 15.9785 28.2377 15.211 27.9329C14.8269 27.7804 14.5232 27.6053 14.3174 27.4233C14.1101 27.24 14.0143 27.0611 14.0143 26.8999V24.4295V24.3278H13.9125H13.1248H13.023V24.4295V26.8999C13.023 27.6919 13.648 28.3357 14.5886 28.7759C15.5345 29.2186 16.8299 29.4721 18.244 29.4721C19.6577 29.4721 20.953 29.2186 21.8988 28.7759C22.8393 28.3357 23.4643 27.6919 23.4643 26.8999V24.4295Z" fill="#FF3366" stroke="#FF3366" stroke-width="0.2"/>
<path d="M23.4643 26.8999V26.7982H23.3625H22.5748H22.473V26.8999V29.3703C22.473 29.5315 22.3772 29.7104 22.17 29.8937C21.9642 30.0757 21.6606 30.2508 21.2766 30.4034C20.5094 30.7081 19.4398 30.9152 18.244 30.9152C17.0483 30.9152 15.9785 30.7081 15.211 30.4033C14.8269 30.2508 14.5232 30.0757 14.3174 29.8937C14.1101 29.7104 14.0143 29.5315 14.0143 29.3703V26.8999V26.7982H13.9125H13.1248H13.023V26.8999V29.3703C13.023 30.1623 13.648 30.8061 14.5886 31.2463C15.5345 31.689 16.8299 31.9425 18.244 31.9425C19.6577 31.9425 20.953 31.689 21.8988 31.2463C22.8393 30.8061 23.4643 30.1623 23.4643 29.3703V26.8999Z" fill="#FF3366" stroke="#FF3366" stroke-width="0.2"/>
<path d="M22.6192 26.8903L22.6424 26.9476L22.704 26.9534C23.0447 26.9854 23.3963 27.0017 23.756 27.0017C25.1701 27.0017 26.4655 26.7482 27.4114 26.3055C28.352 25.8653 28.977 25.2215 28.977 24.4296V21.9592V21.8574H28.8752H28.0875H27.9857V21.9592V24.4296C27.9857 24.5908 27.8899 24.7696 27.6826 24.9529C27.4768 25.1349 27.1731 25.3101 26.789 25.4626C26.0216 25.7673 24.9517 25.9745 23.756 25.9745C23.3919 25.9745 23.0395 25.9554 22.7034 25.9202L22.5884 25.9082L22.5911 26.0238C22.5955 26.2098 22.6001 26.3936 22.6047 26.5735C22.6071 26.6684 22.6095 26.7622 22.6118 26.8546L22.6123 26.8731L22.6192 26.8903L22.6192 26.8903Z" fill="#FF3366" stroke="#FF3366" stroke-width="0.2"/>
<path d="M22.6818 29.3626L22.7037 29.4244L22.7691 29.43C23.0886 29.4573 23.4193 29.4721 23.756 29.4721C25.1701 29.4721 26.4655 29.2186 27.4114 28.7759C28.352 28.3357 28.977 27.6919 28.977 26.8999V24.4295V24.3278H28.8753H28.0875H27.9857V24.4295V26.8999C27.9857 27.0611 27.8899 27.24 27.6826 27.4233C27.4768 27.6053 27.1731 27.7804 26.789 27.9329C26.0216 28.2377 24.9518 28.4448 23.756 28.4448C23.4146 28.4448 23.0834 28.428 22.7664 28.3967L22.6516 28.3854L22.6546 28.5006C22.66 28.7086 22.6646 28.8866 22.6681 29.0266C22.6719 29.1727 22.6745 29.2774 22.676 29.3315L22.6765 29.3475L22.6818 29.3625L22.6818 29.3626Z" fill="#FF3366" stroke="#FF3366" stroke-width="0.2"/>
</g>
<defs>
<clipPath id="clip0_2_1556">
<rect width="18.5728" height="19.4211" fill="white" transform="translate(11.55 12.0775) scale(1.01762)"/>
</clipPath>
</defs>
</svg>
