<svg width="23" height="24" viewBox="0 0 23 24" fill="none" xmlns="http://www.w3.org/2000/svg">
<g clip-path="url(#clip0_2_1411)">
<path d="M22.0609 15.7873C21.4861 15.2326 20.7516 14.9263 20.123 14.6672L20.1224 14.667C19.5067 14.4052 19.0256 14.191 18.691 13.8986C18.3713 13.6193 18.1827 13.2656 18.1581 12.7122C18.4054 12.3822 18.5658 11.9719 18.6694 11.6073C18.7718 11.2467 18.8207 10.9238 18.8419 10.7536C19.2528 10.0817 19.4159 9.39883 19.3461 8.93112C19.6905 8.06484 19.4501 7.36137 19.2208 6.80122C19.0306 6.32309 18.8915 5.91462 19.0692 5.3921L19.1837 5.07322L19.2122 4.99372L19.1391 4.95149L18.7948 4.75275L18.7949 4.75254L18.7888 4.74953C17.5444 4.13942 16.1355 4.05355 15.1073 4.50783L15.1073 4.50775L15.1035 4.50958C14.4402 4.83584 13.9264 5.36705 13.6837 6.10194C13.29 6.44421 13.1072 6.94324 13.0444 7.44286C12.9816 7.94231 13.037 8.45435 13.1319 8.84166C13.0209 9.35391 13.224 10.0433 13.6358 10.7152C13.657 10.885 13.7059 11.2078 13.8083 11.5685C13.9117 11.9327 14.0718 12.3425 14.3185 12.6722C14.2761 13.2269 14.0869 13.5813 13.7717 13.8606C13.442 14.1528 12.9704 14.367 12.3553 14.6285L12.3387 14.6355C11.9621 14.7932 11.5819 14.9524 11.2004 15.1524L11.1103 15.1996L11.158 15.2894L11.5408 16.0094L11.5901 16.102L11.6809 16.0494C11.9044 15.9197 12.1229 15.8266 12.3479 15.7308C12.4641 15.6813 12.582 15.6311 12.7033 15.5747C13.293 15.336 13.9404 15.0703 14.4382 14.6168C14.9426 14.1573 15.2888 13.51 15.2888 12.5222V12.3619V12.3214L15.2607 12.292L15.146 12.172C14.953 11.9703 14.8151 11.6495 14.7257 11.3297C14.6367 11.0115 14.6002 10.7107 14.6002 10.5619V10.4419V10.4187L14.5901 10.3979L14.5516 10.3182L14.5522 10.3179L14.5458 10.3079C14.321 9.95525 14.2011 9.66441 14.1419 9.45029C14.1123 9.34314 14.0981 9.25598 14.0932 9.19046C14.0888 9.12971 14.0929 9.09348 14.0965 9.07797L14.169 8.92533L14.1844 8.89304L14.176 8.85828L14.1375 8.69796L14.1377 8.6979L14.1355 8.69094C14.0443 8.40442 13.9979 8.0084 14.0348 7.64188C14.072 7.27111 14.1914 6.95863 14.4034 6.80437L14.5173 6.72529L14.5489 6.70332L14.5579 6.66588L14.5961 6.50712C14.7426 5.97354 15.0301 5.60006 15.5338 5.37418L15.5339 5.37425L15.5373 5.37254C16.2122 5.03841 17.1417 5.06168 18.0201 5.42402C17.9277 6.09358 18.12 6.61335 18.3051 7.07672C18.318 7.11429 18.3307 7.15111 18.3432 7.18728C18.5194 7.69706 18.651 8.07779 18.3862 8.59592L18.3856 8.59565L18.3817 8.60588L18.3055 8.80557L18.2901 8.84597L18.3087 8.88503L18.3834 9.04218C18.3837 9.04376 18.3848 9.04916 18.3856 9.05986C18.387 9.07699 18.3872 9.10159 18.385 9.1338C18.3807 9.19802 18.3675 9.28703 18.34 9.39734C18.2852 9.6172 18.1745 9.91761 17.9697 10.2688L17.8939 10.3848L17.8775 10.41V10.4401V10.554C17.8581 10.7149 17.8203 11.0154 17.7372 11.3292C17.6522 11.6501 17.5237 11.9694 17.3317 12.1702L17.217 12.2902L17.189 12.3195V12.3601V12.5204C17.189 13.5082 17.5351 14.1554 18.0395 14.615C18.538 15.069 19.1865 15.3349 19.7768 15.5738C20.3729 15.815 20.9112 16.0393 21.3218 16.3962C21.7069 16.731 21.9837 17.1869 22.0733 17.8989H15.3015H15.2004V18V18.7997V18.9008H15.3015H22.9518H23.0529V18.7997V18.3994C23.0529 17.1541 22.6414 16.3475 22.0609 15.7873Z" fill="#DF18FF" stroke="#DF18FF" stroke-width="0.2"/>
<path d="M7.53644 4.93985C6.41107 4.93985 5.77678 5.49829 5.45598 5.83084L11.7801 17.0656C11.7799 17.0655 11.7798 17.0654 11.7796 17.0654C11.7622 17.0587 11.7448 17.052 11.7274 17.0454C10.6215 16.622 9.61189 16.2354 9.19277 14.9481C10.4354 14.5709 11.6342 13.7795 12.1735 12.9347L12.1735 12.9347L12.403 12.5747L12.4597 12.4858L12.3685 12.4329L12.0268 12.2347C11.6937 12.0136 11.4741 11.6214 11.3144 11.1105C11.1547 10.5994 11.0602 9.98756 10.9644 9.34603L10.9643 9.34506C10.9597 9.31633 10.9551 9.28747 10.9505 9.25849C10.8021 8.3244 10.6338 7.26513 10.1788 6.43247C9.94283 6.00073 9.62808 5.62608 9.19629 5.35989C8.76424 5.09355 8.22157 4.93985 7.53644 4.93985ZM13.651 19.8986H0.919247C1.00955 19.3329 1.26274 18.9771 1.61928 18.7108C1.98083 18.4406 2.44862 18.2616 2.98008 18.0582C3.01845 18.0435 3.05715 18.0287 3.09617 18.0138L3.09656 18.0136C3.11167 18.0077 3.12682 18.0018 3.14199 17.9959C3.79569 17.742 4.49949 17.4685 5.09737 16.9934C5.71347 16.5038 6.21389 15.8033 6.44827 14.7004L6.44829 14.7004L6.4487 14.6983L6.5249 14.2979L6.54349 14.2003L6.44618 14.1801L6.06335 14.1004L6.06335 14.1004L6.06194 14.1001C5.08765 13.9117 4.04261 13.3214 3.46778 12.722C3.84283 12.3343 4.04223 11.8508 4.15279 11.3402C4.26852 10.8056 4.28847 10.2331 4.30703 9.70001L4.30765 9.68224H4.30766L4.30768 9.68109C4.32705 8.85757 4.36609 8.20714 4.5679 7.72259C4.66752 7.48338 4.8062 7.28675 5.00137 7.13073C5.19705 6.97428 5.45446 6.85473 5.79695 6.77734L5.7971 6.778L5.80818 6.77411L5.92294 6.7338L5.94577 6.72578L5.9625 6.70829L6.0387 6.6286L6.0388 6.6285C6.30217 6.3531 6.69739 5.93983 7.5337 5.93983C7.99023 5.93983 8.3457 6.02262 8.62919 6.17584C8.91203 6.32871 9.1303 6.55549 9.30681 6.85519C9.66363 7.46103 9.84311 8.35104 10.0348 9.49513C10.13 10.1137 10.2266 10.7401 10.3913 11.3072C10.5466 11.8421 10.7646 12.3321 11.1061 12.7187C10.532 13.3191 9.48488 13.9105 8.50868 14.1001L8.50868 14.1001L8.50736 14.1004L8.12453 14.1801L8.02722 14.2003L8.04581 14.2979L8.12201 14.6983L8.12209 14.6987C8.33703 15.8028 8.83797 16.5039 9.45919 16.9936C10.0533 17.462 10.7551 17.7345 11.4013 17.9853C11.4257 17.9948 11.45 18.0042 11.4741 18.0136L11.4746 18.0138L11.4833 18.0171C12.0576 18.2371 12.5653 18.4316 12.9511 18.7247C13.308 18.9957 13.5607 19.3516 13.651 19.8986Z" fill="#DF18FF" stroke="#DF18FF" stroke-width="0.2"/>
</g>
<defs>
<clipPath id="clip0_2_1411">
<rect width="22.7001" height="23.7368" fill="white" transform="scale(1.01109)"/>
</clipPath>
</defs>
</svg>
