<svg width="26" height="26" viewBox="0 0 26 26" fill="none" xmlns="http://www.w3.org/2000/svg">
<path d="M19.7 13.6913C19.7179 16.5178 20.8517 19.2235 22.8583 21.2184C23.0326 21.3913 23.0855 21.6531 22.9915 21.8804L22.9911 21.8815C22.8963 22.107 22.6759 22.2561 22.4283 22.2549M19.7 13.6913L22.4289 22.0549M19.7 13.6913V13.5968V11.6642C19.7175 10.1275 19.2153 8.63072 18.2749 7.41525C17.3983 6.28218 16.1891 5.45625 14.8209 5.05096C15.2641 4.42356 15.3571 3.60325 15.0486 2.88439L15.0485 2.88427C14.6961 2.06445 13.8906 1.53334 12.9981 1.53334C12.1056 1.53334 11.3001 2.06445 10.9476 2.88427L10.9476 2.88439C10.6396 3.602 10.7317 4.42066 11.1729 5.04762C9.82492 5.42986 8.6276 6.22585 7.75329 7.32788C6.8121 8.51196 6.30016 9.97973 6.30016 11.4925L6.30016 13.5969L6.30016 13.5973C6.30714 16.4578 5.17054 19.2015 3.14166 21.2183C2.9674 21.3913 2.9145 21.6531 3.00845 21.8804L3.00888 21.8815C3.10363 22.1071 3.3241 22.2561 3.57163 22.2549M19.7 13.6913L10.022 22.2549M22.4283 22.2549C22.4281 22.2549 22.4279 22.2549 22.4277 22.2549L22.4289 22.0549M22.4283 22.2549H22.4289V22.0549M22.4283 22.2549H15.978M22.4289 22.0549H15.8111M15.978 22.2549C15.9898 22.1989 16.0001 22.1422 16.0088 22.0851L15.8111 22.0549M15.978 22.2549C15.6831 23.6549 14.4455 24.67 13 24.67C11.5545 24.67 10.317 23.6549 10.022 22.2549M15.978 22.2549H15.8111V22.0549M15.8111 22.0549L10.022 22.2549M10.022 22.2549H10.1889V22.0549L9.99116 22.0851C9.9999 22.1423 10.0102 22.1989 10.022 22.2549ZM10.022 22.2549H3.57163M3.57163 22.2549C3.57186 22.2549 3.57209 22.2549 3.57232 22.2549L3.57109 22.0549V22.2549H3.57163ZM14.7284 22.2549C14.4746 22.9799 13.7866 23.4798 13 23.4799H12.9999C12.2132 23.4798 11.5253 22.9799 11.2715 22.2549H14.7284ZM7.51224 11.4924L7.51224 11.4922C7.51028 9.98894 8.12469 8.55138 9.21231 7.5149L9.2124 7.51482C10.2997 6.47746 11.7642 5.9326 13.265 6.00474C14.6958 6.09329 16.0375 6.73144 17.0098 7.78409L17.0098 7.7841C17.9833 8.83803 18.5118 10.2253 18.4873 11.6596L18.4872 11.6596V11.663L18.4872 13.5961C18.4872 13.5962 18.4872 13.5963 18.4872 13.5964C18.4785 16.3045 19.3943 18.9297 21.0742 21.0424H4.92533C6.60536 18.9296 7.52122 16.3045 7.51224 13.5964L7.51224 11.4924ZM13 2.75486C13.4118 2.75486 13.7837 3.00278 13.9415 3.38397C14.0985 3.76432 14.0119 4.20235 13.7208 4.49448C13.4286 4.78561 12.9905 4.87215 12.6102 4.71507C12.2291 4.55711 11.9813 4.18531 11.9813 3.77361C11.9813 3.21072 12.4371 2.75486 13 2.75486Z" fill="#213F7D" stroke="#213F7D" stroke-width="0.4"/>
</svg>
